<?xml version="1.0" encoding="UTF-8" standalone="no"?>
<!-- Created with Inkscape (http://www.inkscape.org/) -->
<svg
   xmlns:dc="http://purl.org/dc/elements/1.1/"
   xmlns:cc="http://creativecommons.org/ns#"
   xmlns:rdf="http://www.w3.org/1999/02/22-rdf-syntax-ns#"
   xmlns:svg="http://www.w3.org/2000/svg"
   xmlns="http://www.w3.org/2000/svg"
   xmlns:sodipodi="http://sodipodi.sourceforge.net/DTD/sodipodi-0.dtd"
   xmlns:inkscape="http://www.inkscape.org/namespaces/inkscape"
   width="744.09448819"
   height="1052.3622047"
   id="svg2"
   sodipodi:version="0.32"
   inkscape:version="0.46"
   sodipodi:docname="logo.svg"
   inkscape:output_extension="org.inkscape.output.svg.inkscape"
   inkscape:export-filename="C:\Users\Fco\Documents\Visual Studio 2008\Projects\mil\logo.png"
   inkscape:export-xdpi="90"
   inkscape:export-ydpi="90">
  <defs
     id="defs4">
    <inkscape:path-effect
       effect="bend_path"
       id="path-effect3519"
       bendpath="M 113.269,240.79 C 227.842,200.325 316.928,224.727 358.771,250.821 "
       prop_scale="1"
       bendpath-nodetypes="cc" />
    <inkscape:path-effect
       effect="gears"
       id="path-effect3517"
       teeth="10" />
    <inkscape:path-effect
       effect="gears"
       id="path-effect3515"
       teeth="10" />
    <inkscape:path-effect
       effect="gears"
       id="path-effect3513"
       teeth="10" />
    <inkscape:path-effect
       effect="skeletal"
       id="path-effect3511"
       prop_scale="1" />
    <inkscape:path-effect
       effect="bend_path"
       id="path-effect3508"
       bendpath="M 113.26937,240.78997 C 227.842,200.32535 316.92816,224.72736 358.77069,250.8212"
       prop_scale="1"
       bendpath-nodetypes="cc" />
    <inkscape:perspective
       sodipodi:type="inkscape:persp3d"
       inkscape:vp_x="0 : 526.18109 : 1"
       inkscape:vp_y="0 : 1000 : 0"
       inkscape:vp_z="744.09448 : 526.18109 : 1"
       inkscape:persp3d-origin="372.04724 : 350.78739 : 1"
       id="perspective10" />
    <filter
       inkscape:collect="always"
       id="filter3431"
       x="-0.034209841"
       width="1.0684197"
       y="-0.10986622"
       height="1.2197324">
      <feGaussianBlur
         inkscape:collect="always"
         stdDeviation="2.2771159"
         id="feGaussianBlur3433" />
    </filter>
  </defs>
  <sodipodi:namedview
     id="base"
     pagecolor="#ffffff"
     bordercolor="#666666"
     borderopacity="1.0"
     gridtolerance="10000"
     guidetolerance="10"
     objecttolerance="10"
     inkscape:pageopacity="0.0"
     inkscape:pageshadow="2"
     inkscape:zoom="2.7912833"
     inkscape:cx="228.88724"
     inkscape:cy="819.96438"
     inkscape:document-units="px"
     inkscape:current-layer="layer1"
     showgrid="false"
     inkscape:window-width="1280"
     inkscape:window-height="750"
     inkscape:window-x="-8"
     inkscape:window-y="-8" />
  <metadata
     id="metadata7">
    <rdf:RDF>
      <cc:Work
         rdf:about="">
        <dc:format>image/svg+xml</dc:format>
        <dc:type
           rdf:resource="http://purl.org/dc/dcmitype/StillImage" />
      </cc:Work>
    </rdf:RDF>
  </metadata>
  <g
     inkscape:label="Layer 1"
     inkscape:groupmode="layer"
     id="layer1">
    <path
       style="fill:#ff0000;fill-opacity:1;stroke:#ff0000;stroke-width:3.44172955;stroke-linecap:round;stroke-linejoin:round;stroke-opacity:1"
       id="path3437"
       d="M 129.79855,226.49433 C 135.00171,219.74254 130.03489,225.16514 135.3718,219.86574 C 140.99438,214.28269 146.74731,210.48188 152.43508,205.78992 C 158.21374,202.36217 163.93551,197.38954 169.77106,195.50665 C 180.70484,191.97878 208.70166,192.7111 218.78653,192.99029 C 243.3025,193.66921 267.79771,196.19723 292.298,199.14883 C 318.18331,203.30362 344.06643,207.79185 369.97232,210.02732 L 360.27301,234.54965 C 335.60168,226.00653 310.86285,220.13862 286.12107,214.81549 C 261.99319,210.13392 237.87194,205.8172 213.69626,206.04796 C 197.69347,206.20079 178.81157,207.61102 162.7753,214.05762 C 156.9684,216.39199 151.25303,220.99293 145.49191,224.46061 C 139.74598,229.4254 144.14613,221.67297 138.46137,227.44656 C 132.25653,235.61202 125.81647,236.64435 129.79855,226.49433 z"
       sodipodi:nodetypes="cscssccccssccc" />
    <path
       d="M 101.5747,221.78095 C 165.11869,222.72419 105.27115,216.87999 168.77448,220.98097 C 235.86769,226.75377 302.95524,232.9897 370.10181,236.0957 L 344.96181,270.1674 C 281.0151,258.29739 216.89347,250.14452 152.76424,242.74845 C 90.226158,236.24381 149.43183,241.35002 84.978579,237.37156 C 83.978405,232.47187 92.532909,223.15945 101.5747,221.78095 z"
       id="path3439"
       style="fill:#0000ff;fill-opacity:1;stroke:#0000ff;stroke-width:6.53138161;stroke-linecap:round;stroke-linejoin:round;stroke-opacity:1"
       sodipodi:nodetypes="ccccccc" />
    <path
       style="fill:#00ff00;fill-opacity:1;stroke:#00ff00;stroke-width:3.91011596;stroke-linecap:round;stroke-linejoin:round;stroke-opacity:1"
       id="path3441"
       d="M 74.641744,233.09807 C 82.035201,227.61803 89.600127,223.88739 97.079328,219.28196 C 104.67806,215.91746 112.20197,211.03657 119.87548,209.18843 C 134.25302,205.72562 171.0678,206.44444 184.32903,206.71852 C 216.56663,207.38488 248.77692,209.86626 280.99391,212.76338 C 315.03211,216.84156 349.06746,221.24696 383.13274,223.44118 L 370.37852,247.51107 C 337.93662,239.12554 305.40598,233.36592 272.87146,228.14102 C 241.14421,223.5458 209.42565,219.30873 177.63552,219.53524 C 156.59244,219.68522 131.76343,221.06947 110.67632,227.39711 C 103.04046,229.68841 95.524966,234.20446 87.949316,237.60814 C 80.326464,241.62594 75.657394,241.55622 74.641744,233.09807 z"
       sodipodi:nodetypes="ccssccccsscc" />
    <text
       xml:space="preserve"
       style="font-size:21.42499542px;font-style:normal;font-variant:normal;font-weight:normal;font-stretch:normal;text-align:start;line-height:125%;writing-mode:lr-tb;text-anchor:start;fill:#000000;fill-opacity:1;stroke:none;stroke-width:1px;stroke-linecap:butt;stroke-linejoin:miter;stroke-opacity:1;font-family:Consolas;-inkscape-font-specification:Consolas"
       x="292.84656"
       y="286.56949"
       id="text3521"
       sodipodi:linespacing="125%"><tspan
         sodipodi:role="line"
         id="tspan3523"
         x="292.84656"
         y="286.56949">1000</tspan></text>
  </g>
</svg>
